<svg version="1.1" xmlns="http://www.w3.org/2000/svg" xmlns:xlink="http://www.w3.org/1999/xlink" width="690.39439" height="421.03535" viewBox="0,0,690.39439,421.03535"><g transform="translate(103.83386,14.92162)"><g data-paper-data="{&quot;isPaintingLayer&quot;:true}" fill-rule="nonzero" stroke="none" stroke-width="1" stroke-linecap="butt" stroke-linejoin="miter" stroke-miterlimit="10" stroke-dasharray="" stroke-dashoffset="0" style="mix-blend-mode: normal"><g><path d="M-21.26628,105.72526v-117.14435h532.42323v117.14435z" fill="#008cb4"/><path d="M586.56053,-13.69544l-5.97756,122.0547l-182.08011,-27.8953l76.08479,-94.15939z" fill="#00a0b4"/><path d="M10.18263,-14.92161l72.02595,95.17553l-180.00811,28.10533l-6.03433,-123.28086z" fill="#00a0b4"/><g opacity="0.4"><path d="M30.03404,40.53973c0.37738,-0.71141 0.94804,-1.30174 1.64625,-1.70301c1.18076,-0.6812 2.35583,-1.36241 3.76933,-1.45891c2.36487,-0.24782 4.72949,0.47078 6.55658,1.99252c1.21948,0.99617 1.93126,2.48423 1.94143,4.05884c0.12492,2.03104 -0.41946,4.04704 -1.54974,5.73915c-0.322,0.51905 -0.76392,0.95319 -1.28861,1.2659c-0.2441,0.13624 -0.48252,0.29519 -0.71526,0.44846c-1.36483,0.9433 -2.99671,1.42292 -4.65489,1.36809h-0.56767c-2.53181,0.07948 -4.23482,-1.16372 -5.37016,-3.37196c-1.47594,-2.84403 -1.23752,-5.60858 0.23275,-8.33907z" fill="#006482"/><path d="M60.25111,82.3032c0.97071,-4.46756 -0.03406,-9.48576 6.34087,-10.11588c6.37493,-0.63012 7.06749,5.22824 7.14696,10.14426c0.06812,4.26887 -0.28952,11.76212 -5.9946,12.48873c-6.73824,0.85718 -7.01072,-8.12903 -7.49324,-12.51712z" fill="#78c8c8"/><path d="M129.55225,52.67652c-0.28384,6.42034 -4.12129,8.80455 -7.66354,9.0373c-4.03046,0.23842 -8.20282,-4.0191 -7.86222,-9.46873c0.29519,-4.76275 3.81473,-8.20283 7.31726,-8.55479c4.13263,-0.43711 8.45829,2.57155 8.20851,8.98622z" fill="#00a0b4"/><path d="M102.97394,75.90557c-0.19301,4.73436 -3.02567,6.49415 -5.64263,6.65309c-2.97459,0.17598 -6.05704,-2.96891 -5.80727,-6.98802c0.22139,-3.51955 2.83834,-6.05704 5.40421,-6.31817c3.05406,-0.32357 6.24437,1.89602 6.04569,6.65309z" fill="#006482"/><path d="M137.15334,43.92305c0.19869,-4.73436 3.03136,-6.49415 5.6767,-6.64742c2.97459,-0.18165 6.05704,2.96323 5.80727,6.98801c-0.22139,3.51387 -2.83836,6.05136 -5.40422,6.31249c-3.08245,0.30654 -6.27275,-1.91873 -6.07975,-6.65309z" fill="#78c8c8"/><path d="M96.54792,48.71986c-0.35763,8.61723 -5.5064,11.81888 -10.26347,12.10272c-5.41557,0.3179 -11.01847,-5.39286 -10.56433,-12.71013c0.39737,-6.40331 5.10903,-11.01279 9.83204,-11.48963c5.54613,-0.562 11.3534,3.4855 10.99577,12.09705z" fill="#006482"/><path d="M24.99881,58.81303c-0.26681,6.4317 -4.1156,8.82158 -7.66922,9.03162c-4.04181,0.2441 -8.22554,-4.02478 -7.88493,-9.49144c0.29519,-4.77978 3.8261,-8.21986 7.33998,-8.56046c4.14399,-0.43711 8.48099,2.5829 8.21418,9.02028z" fill="#aadcdc"/><path d="M169.28914,0.40548c1.32835,-6.09109 -0.04541,-12.9372 8.65129,-13.79438c8.6967,-0.85718 9.65039,7.12994 9.74122,13.83411c0.09082,5.80159 -0.39737,16.02532 -8.17444,16.99036c-9.19057,1.19211 -9.56524,-11.09794 -10.21806,-17.03009z" fill="#00a0b4"/><path d="M204.865,5.90052c0.98207,-0.53928 15.45765,-1.35105 17.5637,-0.74932c0.52398,0.40034 0.79625,1.04859 0.71526,1.70301c0,1.85628 0,12.23328 0,14.34502c0.04676,0.87769 -0.1988,1.74611 -0.69823,2.46936c-0.79474,0.10786 -15.97423,0.40872 -16.6384,0.30654c-0.53881,-0.12401 -0.94925,-0.56136 -1.03884,-1.10695c-0.28384,-1.10695 -0.13624,-16.37728 0.0965,-16.96765z" fill="#78c8c8"/><path d="M361.76327,72.6812c0.98207,-0.53929 15.45198,-1.35106 17.56371,-0.74932c0.5313,0.40081 0.81006,1.05339 0.7323,1.71436c0,1.82789 0,12.23329 0,14.34502c0.04638,0.88025 -0.20125,1.75094 -0.70391,2.47504c-0.78906,0.10786 -15.96855,0.40305 -16.63272,0.30087c-0.53956,-0.11895 -0.95155,-0.5557 -1.03884,-1.10128c-0.3179,-1.11263 -0.13625,-16.38295 0.07947,-16.98468z" fill="#78c8c8"/><path d="M249.92096,91.73788c0,-14.25987 0,-45.24329 0,-47.30393c-0.02332,-1.03176 0.07576,-2.06265 0.29519,-3.07109c2.28493,-0.24979 4.58162,-0.37676 6.88016,-0.38034c0.22707,0.10218 0.36331,0.6812 0.43143,1.37376c0.0738,1.06155 0.05676,33.73094 0,49.38728z" fill="#006482"/><path d="M21.2749,28.70949c-0.45977,-1.66909 -0.48322,-3.42827 -0.06812,-5.10902c0.39737,-2.16282 2.22527,-3.89421 4.31997,-3.89421c1.67462,0 2.83835,0.91962 3.76933,2.1174c1.34636,1.8142 1.46735,4.26078 0.30654,6.19896c-0.18165,0.27248 -0.32357,0.56768 -0.4882,0.85719c-0.82262,1.45435 -2.30907,2.40992 -3.97368,2.55451c-1.19611,0.12413 -2.36142,-0.43004 -3.02001,-1.4362c-0.31222,-0.40304 -0.56199,-0.85151 -0.84583,-1.28861z" fill="#78c8c8"/><path d="M202.68515,83.34204c-0.45977,-1.66909 -0.48322,-3.42827 -0.06812,-5.10903c0.39737,-2.1685 2.22527,-3.8999 4.31996,-3.90557c1.67462,0 2.83835,0.91963 3.76933,2.11741c1.34735,1.81597 1.46834,4.26469 0.30654,6.20463c-0.18166,0.26681 -0.32357,0.56767 -0.4882,0.85151c-0.8204,1.45645 -2.30809,2.41282 -3.97369,2.55451c-1.19473,0.12401 -2.35912,-0.42754 -3.02,-1.43053c-0.31222,-0.39737 -0.56199,-0.84583 -0.84583,-1.28293z" fill="#006482"/><path d="M199.30184,23.97513c-0.26681,6.42035 -4.10425,8.78753 -7.64651,9.0146c-4.03045,0.23842 -8.20283,-4.0191 -7.86223,-9.46873c0.29519,-4.76275 3.81474,-8.20283 7.31726,-8.55479c4.13263,-0.4144 8.45828,2.59425 8.19148,9.00892z" fill="#006482"/><path d="M169.6638,39.30221l20.35664,0.88556l-19.99333,14.96945z" fill="#006482"/><path d="M63.47548,37.51405c-0.15327,3.70689 -2.37287,5.10903 -4.41648,5.20554c-2.32744,0.13624 -4.74004,-2.31609 -4.54135,-5.46666c0.1703,-2.7532 2.20255,-4.73437 4.22346,-4.93873c2.38989,-0.2441 4.88764,1.49865 4.73437,5.19985z" fill="#006482"/><path d="M191.99593,73.50432c-0.15327,3.70689 -2.36719,5.10903 -4.4108,5.20553c-2.33312,0.13624 -4.74004,-2.31609 -4.54135,-5.46666c0.17598,-2.7532 2.20824,-4.73437 4.22914,-4.93873c2.38989,-0.2441 4.88763,1.49865 4.72301,5.19986z" fill="#00a0b4"/><path d="M273.41114,35.85078c-0.15895,3.70689 -2.37286,5.10903 -4.41647,5.20553c-2.33312,0.13624 -4.74005,-2.31609 -4.54136,-5.46666c0.17598,-2.7532 2.20823,-4.73436 4.22914,-4.93872c2.38421,-0.2441 4.88196,1.49865 4.72869,5.19985z" fill="#006482"/><path d="M291.14514,79.45918c-0.15327,3.70689 -2.37286,5.10903 -4.41647,5.20553c-2.32745,0.13624 -4.74005,-2.31609 -4.54136,-5.46666c0.1703,-2.7532 2.20256,-4.73437 4.22914,-4.93873c2.38421,-0.2441 4.88196,1.49864 4.72869,5.19985z" fill="#006482"/><path d="M294.97692,31.52514c-0.15327,3.70689 -2.36719,5.10903 -4.4108,5.20553c-2.33312,0.13624 -4.74005,-2.31609 -4.54136,-5.46666c0.17598,-2.7532 2.20823,-4.73437 4.22914,-4.93873c2.38421,-0.2441 4.88196,1.49865 4.72302,5.19985z" fill="#006482"/><path d="M310.2813,16.22643c-0.15327,3.70689 -2.37286,5.10903 -4.41647,5.20554c-2.32745,0.13624 -4.74004,-2.32177 -4.54136,-5.46666c0.1703,-2.7532 2.20255,-4.74005 4.22346,-4.94441c2.38989,-0.23842 4.88764,1.49865 4.73437,5.20553z" fill="#006482"/><path d="M332.36933,67.95819c-0.15327,3.70689 -2.37286,5.10903 -4.41647,5.20553c-2.32745,0.13624 -4.74005,-2.32177 -4.54136,-5.47234c0.1703,-2.74752 2.20256,-4.73436 4.22346,-4.93872c2.38989,-0.23842 4.88764,1.49865 4.73437,5.20553z" fill="#006482"/><path d="M166.53026,25.72923c-0.15327,3.70689 -2.37286,5.10903 -4.41647,5.20554c-2.32745,0.14192 -4.74005,-2.3161 -4.54136,-5.46666c0.1703,-2.7532 2.20256,-4.73437 4.22347,-4.93873c2.38422,-0.25545 4.88763,1.49865 4.73436,5.19985z" fill="#006482"/><path d="M237.46061,45.90989c-0.15327,3.70121 -2.37286,5.10903 -4.41647,5.19985c-2.32745,0.14192 -4.74005,-2.31609 -4.54136,-5.46666c0.1703,-2.7532 2.20256,-4.73437 4.22346,-4.93873c2.4126,-0.2441 4.88763,1.49865 4.73436,5.20553z" fill="#006482"/><path d="M251.83968,23.85592c-0.15327,3.70689 -2.37286,5.10902 -4.41647,5.20553c-2.32745,0.13624 -4.74005,-2.31609 -4.54136,-5.46666c0.1703,-2.7532 2.20256,-4.73437 4.22914,-4.93873c2.38422,-0.2441 4.88196,1.49865 4.72869,5.19985z" fill="#006482"/><path d="M15.28031,12.98504c-0.2668,6.41467 -4.10425,8.79888 -7.64651,8.99189c-4.03045,0.23842 -8.20851,-4.01343 -7.8679,-9.46306c0.30087,-4.76842 3.82042,-8.20283 7.32294,-8.55479c4.13264,-0.40305 8.45829,2.61128 8.19148,9.02595z" fill="#006482"/><path d="M456.26895,56.75238c0.26113,-6.39196 4.10425,-8.80455 7.64083,-9.01459c4.03046,-0.23842 8.20851,4.0191 7.86791,9.46873c-0.29519,4.76275 -3.81475,8.20283 -7.32295,8.55478c-4.12696,0.4144 -8.44692,-2.59425 -8.18579,-9.00892z" fill="#78c8c8"/><path d="M402.83986,27.82393c-1.29996,5.96621 0.04541,12.6704 -8.46963,13.51055c-8.51504,0.84015 -9.44035,-6.98234 -9.54253,-13.55028c-0.0965,-5.6767 0.38601,-15.7131 8.00414,-16.68381c9.00324,-1.14669 9.36656,10.87655 10.00802,16.72355z" fill="#aadcdc"/><path d="M354.49142,22.69219c0.2668,-6.41467 4.10426,-8.79888 7.64652,-9.00892c4.03046,-0.23842 8.20282,4.01343 7.86222,9.46306c-0.29519,4.76843 -3.81474,8.20283 -7.31727,8.55478c-4.13263,0.42007 -8.45828,-2.58857 -8.19147,-9.00892z" fill="#006482"/><path d="M420.71579,28.53919c0.2668,-6.41467 4.10426,-8.79888 7.64652,-9.00892c4.03046,-0.2441 8.2085,4.01342 7.8679,9.46305c-0.30086,4.76843 -3.81474,8.20283 -7.32294,8.55479c-4.13263,0.42007 -8.45828,-2.59425 -8.19148,-9.00892z" fill="#006482"/><path d="M449.61018,28.78897c0.27248,-8.6967 4.16102,-11.92107 7.75437,-12.2049c4.08722,-0.32357 8.31637,5.42692 7.94738,12.79528c-0.2668,6.43738 -3.84313,11.08092 -7.39674,11.55776c-4.18941,0.56767 -8.57749,-3.50252 -8.30501,-12.14813z" fill="#aadcdc"/><path d="M316.01476,33.69364c0.2668,-6.41467 4.10425,-8.79888 7.64651,-9.00892c4.03046,-0.23842 8.20283,4.01343 7.86223,9.46306c-0.29519,4.76843 -3.81474,8.20283 -7.31727,8.55478c-4.13263,0.42007 -8.45828,-2.59425 -8.19147,-9.00892z" fill="#00a0b4"/><path d="M273.64956,66.13029c-0.14191,4.6776 -2.2423,6.41467 -4.17805,6.56794c-2.20824,0.1703 -4.49026,-2.92918 -4.30293,-6.89719c0.16463,-3.47414 2.08902,-5.97757 4.00207,-6.24437c2.25932,-0.29519 4.62651,1.89602 4.47892,6.57362z" fill="#aadcdc"/><path d="M389.63019,53.76644c-0.2668,6.41467 -4.10425,8.79888 -7.64651,9.00892c-4.03046,0.23842 -8.20283,-4.01343 -7.86223,-9.46874c0.29519,-4.76275 3.81474,-8.19715 7.31727,-8.55478c4.13263,-0.40872 8.45828,2.59993 8.19147,9.0146z" fill="#006482"/><path d="M307.51674,56.23581c-0.2668,6.41467 -4.10425,8.79888 -7.64651,9.00892c-4.03046,0.23842 -8.20283,-4.01343 -7.86791,-9.46874c0.30086,-4.76275 3.82042,-8.19716 7.32294,-8.55479c4.13263,-0.4144 8.47531,2.57155 8.19148,9.0146z" fill="#006482"/><path d="M432.35302,70.28563c-0.2668,6.42034 -4.10425,8.80456 -7.64651,9.0146c-4.03046,0.23842 -8.20283,-4.0191 -7.86223,-9.46873c0.29519,-4.76275 3.81474,-8.19716 7.31727,-8.55479c4.13263,-0.4144 8.45828,2.59425 8.19148,9.00892z" fill="#006482"/><path d="M107.01575,22.62975c-0.26681,6.41467 -4.10425,8.79888 -7.64651,9.00892c-4.03614,0.23842 -8.2085,-4.01343 -7.8679,-9.46306c0.29519,-4.76843 3.81474,-8.20283 7.32294,-8.55478c4.13263,-0.42008 8.4526,2.59426 8.19147,9.00893z" fill="#00a0b4"/><path d="M317.62127,82.25211c-0.2668,6.41467 -4.10426,8.79888 -7.64652,9.00892c-4.03046,0.23842 -8.20283,-4.01342 -7.8679,-9.46873c0.30086,-4.76275 3.82042,-8.19715 7.32295,-8.55478c4.13263,-0.4144 8.45828,2.59425 8.19147,9.0146z" fill="#aadcdc"/><path d="M168.31842,72.31789c-0.26113,5.17715 -4.09857,7.10155 -7.64083,7.27185c-4.03614,0.19301 -8.20851,-3.2414 -7.86791,-7.64084c0.29519,-3.84313 3.81475,-6.61335 7.32295,-6.90286c4.13263,-0.33492 8.4526,2.0947 8.18579,7.27185z" fill="#aadcdc"/><path d="M74.26688,15.05703c-0.26681,5.17715 -4.09857,7.10155 -7.64083,7.27186c-4.05884,0.21571 -8.20851,-3.2414 -7.8679,-7.64084c0.29519,-3.84313 3.80906,-6.61335 7.31726,-6.90286c4.13832,-0.33493 8.45828,2.0947 8.19147,7.27185z" fill="#78c8c8"/><path d="M55.36347,67.66867c-0.38034,6.41467 -5.82429,8.79888 -10.84817,9.00892c-5.72211,0.23842 -11.64859,-4.01343 -11.16607,-9.46873c0.42575,-4.76275 5.41556,-8.19716 10.38835,-8.55479c5.86403,-0.4144 12.01757,2.59425 11.62588,9.0146z" fill="#aadcdc"/><path d="M242.46178,69.89394c-0.37466,6.41467 -5.82429,8.79888 -10.84817,9.00892c-5.72211,0.23842 -11.64291,-4.01342 -11.16039,-9.46305c0.42007,-4.76842 5.41557,-8.20283 10.38836,-8.55479c5.86403,-0.42007 12.00054,2.59425 11.6202,9.00892z" fill="#aadcdc"/><path d="M136.36428,14.31906c0.97639,-4.46756 -0.03406,-9.48577 6.34087,-10.1102c6.37493,-0.62444 7.06749,5.22824 7.14696,10.13859c0.06812,4.26888 -0.28951,11.76212 -5.99459,12.48873c-6.76663,0.85718 -7.03911,-8.15174 -7.49325,-12.51712z" fill="#006482"/><path d="M199.33022,53.68697c0.97639,-4.46189 -0.03406,-9.48577 6.34655,-10.13858c6.38061,-0.65282 7.06181,5.22824 7.14128,10.14426c0.06812,4.26888 -0.28951,11.76213 -5.99459,12.48874c-6.73824,0.87989 -7.01073,-8.12904 -7.49325,-12.49442z" fill="#aadcdc"/><path d="M128.48503,77.92647c0.97072,-4.46756 -0.03406,-9.48576 6.34087,-10.11588c6.37493,-0.63012 7.06181,5.22824 7.14129,10.14426c0.06812,4.26887 -0.28951,11.76212 -5.98892,12.48874c-6.74392,0.85718 -6.99369,-8.15741 -7.49324,-12.51712z" fill="#006482"/><path d="M444.20029,83.98918c0.97639,-4.46188 -0.03406,-9.48009 6.34655,-10.1102c6.38061,-0.63012 7.06182,5.22824 7.11858,10.14426c0.06812,4.26887 -0.28951,11.76212 -5.9946,12.48874c-6.71553,0.85718 -6.98801,-8.15742 -7.47053,-12.5228z" fill="#006482"/><path d="M341.32716,49.22508c0.97639,-4.46756 -0.03406,-9.48577 6.34087,-10.1102c6.37493,-0.62443 7.06749,5.22824 7.14696,10.13858c0.06812,4.26888 -0.28951,11.76212 -5.99459,12.48873c-6.73824,0.86286 -7.01072,-8.14606 -7.49325,-12.51712z" fill="#aadcdc"/></g></g><g><path d="M483.2261,135.14789h-90.15733l5.44963,-54.49631c32.13579,1.93008 61.50703,4.25185 84.7077,6.28979z" fill="#64645a"/><path d="M78.67618,124.9128l3.54793,-44.49964c21.44089,-0.81177 45.24329,-1.62354 68.82429,-2.27068c25.70409,-0.70391 53.53127,0.65282 78.03758,0c51.47062,-1.36241 119.68751,-0.48252 169.43242,2.49207v44.27825z" fill="#3c3c32"/><path d="M-8.37599,128.31882v-43.79573c12.57389,-0.64714 27.04379,-1.3624 42.71148,-2.07767c14.78213,-0.66985 30.85853,-1.35105 47.88863,-2.00387v47.87727z" fill="#64645a"/><path d="M495.71483,122.94867v154.17345h-516.57956v-153.29924l263.13768,-8.91809z" fill="#828c00"/><path d="M444.90271,155.7316c-0.0965,-1.55542 -0.2441,-2.78726 0.17597,-4.1156l0.89124,0.09082v3.62741z" fill="#82783c"/><path d="M442.67744,154.77791h-0.83447c-0.34628,-1.00477 0.1703,-1.97549 -0.07948,-3.01432l0.95936,-0.33492c0.30086,1.21481 -0.13056,2.24229 -0.04541,3.34925z" fill="#82783c"/><path d="M483.2261,363.33414h-490.46675v-143.45585l242.41774,-32.22094l248.04902,28.13371z" fill="#a0aa1e"/><path d="M152.1724,277.57625l0.90827,0.30654c0.07948,1.61786 0.14759,3.12786 0.21571,4.6038c-0.11921,0.10218 -0.19301,0.21571 -0.28384,0.22707c-0.22861,0.01774 -0.45827,0.01774 -0.68688,0c-0.11909,-0.36934 -0.20087,-0.74969 -0.2441,-1.13534c0,-1.24887 0.05109,-2.4864 0.09083,-4.00207z" fill="#82783c"/><path d="M149.73709,282.55472c-0.23842,-0.27816 -0.47116,-0.42575 -0.48819,-0.56767c-0.08044,-0.81302 -0.11834,-1.62968 -0.11354,-2.44666c0.05719,-0.46073 0.15793,-0.91501 0.30087,-1.35673l0.77203,0.40305c0.18733,3.05406 0.18733,3.05406 -0.47117,3.96801z" fill="#82783c"/><path d="M156.288,282.6058l-0.9991,0.21004c-0.65282,-1.29996 -0.09083,-2.53749 -0.19869,-3.80907l0.70391,-0.20436c0.53361,1.25455 0.34061,2.50342 0.49388,3.80338z" fill="#82783c"/><path d="M59.55138,192.69826c0,-20.15904 80.87957,-36.50117 180.64958,-36.50117c99.77001,0 180.64958,16.34213 180.64958,36.50117c0,20.15904 -80.87957,36.50118 -180.64958,36.50118c-99.77,0 -180.64957,-16.34214 -180.64957,-36.50118z" fill="#a0640a"/><path d="M119.88333,365.06553c0,-22.6703 51.95171,-41.04821 116.0374,-41.04821c64.08569,0 116.0374,18.37791 116.0374,41.04821c0,22.6703 -51.95171,41.0482 -116.03739,41.0482c-64.08569,0 -116.03739,-18.3779 -116.03739,-41.0482z" fill="#a0640a"/><path d="M555.09878,210.82963l-4.14399,23.81943l-316.96982,-42.46738l-306.68931,47.58209l-4.06451,-25.82898l313.45026,-46.68517z" fill="#a0640a"/><path d="M249.2042,189.84288l0.33493,6.39196l-23.94432,-0.21571l0.18734,-5.77888l10.6211,-2.58289z" fill="#ffffff"/><path d="M526.12491,143.23719c-29.69481,-4.4335 -52.72518,-9.03163 -95.36853,-13.13588c-57.70364,-5.54613 -151.23293,-8.4072 -194.1885,-8.74779c-61.93278,-0.50522 -172.54892,5.67102 -246.27221,13.11885c-12.8634,1.28294 -24.44386,2.63967 -34.75842,3.97369l-4.14967,-15.17382c127.32835,-6.37493 177.85096,-14.07254 294.22328,-13.34592c135.03163,0.85718 230.27527,9.0884 277.10803,15.04893z" fill="#a0aa1e"/><path d="M551.59625,225.2598l-209.24878,-30.26248v-3.76365l209.20337,30.6712z" fill="#ffffff"/><path d="M-79.56179,223.97687l209.20337,-30.6712v3.76365l-209.24878,30.26248z" fill="#ffffff"/><path d="M401.13536,328.31459l0.91395,0.30654c0.0738,1.61786 0.14759,3.12786 0.21571,4.6038c-0.12489,0.0965 -0.19869,0.21571 -0.28951,0.22707c-0.22683,0.01489 -0.45438,0.01489 -0.6812,0c-0.11991,-0.36944 -0.20357,-0.74968 -0.24977,-1.13534c0,-1.24887 0.05109,-2.47504 0.09083,-4.00207z" fill="#82783c"/><path d="M398.70573,333.28737c-0.23842,-0.27248 -0.47117,-0.42007 -0.4882,-0.56767c-0.08297,-0.81284 -0.12087,-1.62963 -0.11354,-2.44665c0.05577,-0.45541 0.15655,-0.90417 0.30086,-1.3397l0.76636,0.40305c0.18733,3.04271 0.18733,3.04271 -0.46549,3.95098z" fill="#82783c"/><path d="M405.25664,333.33846l-1.00477,0.21571c-0.65282,-1.30564 -0.09083,-2.53749 -0.19301,-3.80906l0.70391,-0.21004c0.53361,1.25455 0.3406,2.5091 0.49387,3.80338z" fill="#82783c"/><path d="M91.63041,152.16096l0.90827,0.30654c0.07948,1.61786 0.1476,3.12786 0.21572,4.6038c-0.11921,0.10218 -0.193,0.21571 -0.28383,0.23274c-0.22872,0.0146 -0.45816,0.0146 -0.68688,0c-0.1191,-0.36934 -0.20087,-0.74969 -0.2441,-1.13534c-0.00567,-1.27725 0.0511,-2.51477 0.09083,-4.00774z" fill="#82783c"/><path d="M89.1951,157.11671c-0.23842,-0.27816 -0.47116,-0.42008 -0.48819,-0.56767c-0.0803,-0.81113 -0.1182,-1.6259 -0.11354,-2.44098c0.05795,-0.45504 0.15868,-0.90358 0.30087,-1.3397l0.77203,0.40304c0.16463,3.03135 0.16463,3.03136 -0.47116,3.94531z" fill="#82783c"/><path d="M95.74601,157.1678l-0.9991,0.21004c-0.65282,-1.29996 -0.09083,-2.53748 -0.19868,-3.80339l0.70391,-0.21004c0.53361,1.25455 0.3406,2.50342 0.49387,3.80338z" fill="#82783c"/><path d="M69.9,242.09121l-0.78338,-0.31789c0.13057,-2.04361 0.48252,-4.0929 0.193,-6.24437l0.97639,-0.22139c0.03424,2.26755 -0.09477,4.53462 -0.38602,6.78365z" fill="#82783c"/><path d="M67.27169,238.23106c0.14191,1.21481 0.27248,2.34448 0.42007,3.62174h-1.05019c-0.07948,-1.29429 -0.14759,-2.47504 -0.22139,-3.79771z" fill="#82783c"/><path d="M450.54534,273.50606l-0.78338,-0.31789c0.13056,-2.04361 0.48252,-4.0929 0.19301,-6.24437l0.97639,-0.22139c0.03424,2.26755 -0.09477,4.53463 -0.38602,6.78366z" fill="#82783c"/><path d="M447.91703,269.66861c0.14191,1.21481 0.27248,2.34448 0.42007,3.62174h-1.05019c-0.07948,-1.29429 -0.1476,-2.47504 -0.22139,-3.79771z" fill="#82783c"/><path d="M344.60112,203.57481l-84.40683,0.08515l-0.56767,-22.34349l83.74266,0.06244zM339.63969,200.77052l-0.53929,-16.59867l-74.26825,0.12489l0.64714,16.33754z" fill="#ffffff"/><path d="M128.92631,181.37892l83.74266,-0.06244l-0.56767,22.34349l-84.40683,-0.08515zM206.82765,200.63428l0.64715,-16.33754l-74.26825,-0.12489l-0.53929,16.59867z" fill="#ffffff"/><path d="M276.66239,170.24124l-88.67003,0.10218l-0.59605,12.14813l-6.46008,-0.05677l2.06632,-16.18427l97.37241,0.5109l3.12219,15.67337l-4.97278,-0.193z" fill="#ffffff"/><path d="M415.63933,212.9811l0.91395,0.30654c0.0738,1.61786 0.14192,3.12786 0.21571,4.6038c-0.12489,0.10218 -0.19869,0.21571 -0.28951,0.22707c-0.22672,0.01774 -0.45448,0.01774 -0.6812,0c-0.12077,-0.36921 -0.20444,-0.74954 -0.24977,-1.13534c0,-1.24319 0.05109,-2.48639 0.09083,-4.00207z" fill="#828c00"/><path d="M413.2097,217.95957c-0.23842,-0.27816 -0.47684,-0.42575 -0.4882,-0.56767c-0.0861,-0.81259 -0.12401,-1.62957 -0.11354,-2.44665c0.05638,-0.45294 0.15521,-0.89958 0.29519,-1.33403l0.77203,0.40305c0.18733,3.03135 0.18733,3.03135 -0.46549,3.9453z" fill="#828c00"/><path d="M419.75493,218.01066l-0.9991,0.21004c-0.65282,-1.29996 -0.09082,-2.53749 -0.19869,-3.80339l0.70391,-0.21004c0.53929,1.25455 0.3406,2.50343 0.49388,3.80339z" fill="#828c00"/><path d="M259.53012,334.8655v4.70031l-49.2113,0.07379v-5.1147z" fill="#ffffff"/></g></g></g></svg>